<?xml version="1.0" encoding="UTF-8"?>
<svg width="500" height="500" version="1.1" viewBox="0 0 132.29 132.29" xmlns="http://www.w3.org/2000/svg" xmlns:cc="http://creativecommons.org/ns#" xmlns:dc="http://purl.org/dc/elements/1.1/" xmlns:rdf="http://www.w3.org/1999/02/22-rdf-syntax-ns#">
 <metadata>
  <rdf:RDF>
   <cc:Work rdf:about="">
    <dc:format>image/svg+xml</dc:format>
    <dc:type rdf:resource="http://purl.org/dc/dcmitype/StillImage"/>
    <dc:title/>
   </cc:Work>
  </rdf:RDF>
 </metadata>
 <rect width="132.29" height="132.29" fill="#809c5f"/>
 <g fill-opacity=".14">
  <path d="m49.113 115.53c-1.002-0.78353-3.9349-3.6116-4.5529-4.1779-1.5365-1.6757-2.5493-1.4227-3.401-1.2288-0.56783 0.17067-0.9223 0.34686-1.2313 0.64941-0.30062 0.27928-0.4604 0.86462-0.69658 1.0374l-0.7735 0.5897 1.0244 0.68571c-0.16533 0.53758-0.41333 1.7225-0.3897 3.1707 0.0478 2.2459 2.2329 3.5856 3.7767 4.1937 1.9572 0.76371 6.4427-0.11574 7.7788-1.4966 1.0688 0.41893 3.9452 1.6675 5.8073 1.5761 0.50753-0.0241 1.5948-0.32096 0.87438-1.1603-0.72039-0.83932-3.3051-1.3899-4.3238-1.7623-1.453-0.52753-3.1329-1.5337-3.8927-2.0768z"/>
  <path d="m18.916 117.74c0.20056-0.23191 0.39331-0.80121 0.55915-1.4384 0.41813 0.49705 1.0297 0.81782 1.7221 0.81782 0.79869 0 1.4989-0.4212 1.9057-1.0555 0.1219 0.0195 0.24521 0.0383 0.37206 0.0383 1.2579 0 2.2784-1.0396 2.2784-2.322 0-0.94641-0.55633-1.7577-1.3536-2.1197 0.05952-0.28538 0.09568-0.57869 0.09568-0.8814 0-2.2194-1.703-4.0168-3.8467-4.1505-0.63356-1.4752-2.0729-2.5069-3.7511-2.5069-1.9737 0-3.62 1.424-4.0083 3.3182-0.17434-0.0289-0.3501-0.0549-0.53222-0.0549-1.5825 0-2.9014 1.1292-3.2387 2.6377-1.097 0.55484-1.8589 1.697-1.8589 3.03 0 1.8733 1.4904 3.3926 3.328 3.3926 1.0694 0 2.0105-0.5245 2.62-1.3235 0.25725 0.78747 0.60237 1.6494 0.93828 1.8719 0.65341 0.43131 0.88515 0.43131 1.0389 0.86261 0.15379 0.43203-0.5549 4.6028-0.90144 5.0724-0.34655 0.46959-1.3394 0.89296-1.9071 1.1234-0.56838 0.23045-2.7773 1.291-3.0006 1.7259 0.76042-0.33306 2.2494-0.61915 3.4392-0.80987 0.36568-0.0593-1.3316 1.1234-1.0538 1.0837 0.46914-0.065 2.8078-1.3336 2.8085-1.3336 0 0-0.01844 0.63214-0.46136 1.0598-0.73065 0.70584-1.8085 1.4507-1.8085 1.4507s3.79-1.2166 4.3669-2.4708c1.4436 1.9217 3.9431 2.2743 3.9431 2.2743s-1.496-0.95798-1.7682-1.4615c-0.27213-0.50355 0.01493-0.7752 0.01493-0.7752s2.7547 1.0613 5.1394 0.94353c-0.96098-0.43131-2.0779-0.78458-3.0771-1.4514-1.0007-0.66682-1.5293-0.81999-2.2309-1.1068-0.70159-0.2861-0.67254-2.8436-0.76255-3.3948-0.20197-1.2217 0.42592-1.3871 0.99074-2.046zm-4.5618-1.7245c-0.16016-0.12282-0.43441-0.50644-0.70796-0.92691 0.49323 0.29405 1.0602 0.47466 1.6732 0.47466 0.08008 0 0.1545-0.0174 0.23316-0.0231 0.01628 0.39518 0.01702 0.70945 0.01702 0.70945s-0.80861 0.0787-1.2154-0.23408zm3.0998 0.90091s0.34584-1.0591 0.19206-1.6082c-0.03756-0.13437-0.0737-0.36267-0.10488-0.62853 0.17221-0.15894 0.32954-0.33161 0.4656-0.52378 0.28277 0.20951 0.59246 0.38001 0.92483 0.51077-0.0027 0.044-0.01344 0.086-0.01344 0.13005 0 0.24057 0.04533 0.46742 0.11196 0.68488-0.34158 0.62059-0.66829 1.2123-0.76962 1.3951-0.23599 0.43276-0.80648 0.0397-0.80648 0.0397z" opacity=".998"/>
  <path d="m84.929 117.86c0.20055-0.23191 0.39331-0.80121 0.55914-1.4384 0.41813 0.49705 1.0297 0.81782 1.7221 0.81782 0.79869 0 1.4989-0.4212 1.9056-1.0555 0.1219 0.0195 0.24521 0.0383 0.37206 0.0383 1.2579 0 2.2784-1.0396 2.2784-2.322 0-0.94641-0.55633-1.7577-1.3536-2.1197 0.0595-0.28538 0.0957-0.57869 0.0957-0.8814 0-2.2194-1.703-4.0168-3.8467-4.1505-0.63356-1.4752-2.0729-2.5069-3.7511-2.5069-1.9737 0-3.62 1.424-4.0083 3.3182-0.17434-0.0289-0.3501-0.0549-0.53222-0.0549-1.5825 0-2.9014 1.1292-3.2387 2.6377-1.097 0.55484-1.8589 1.697-1.8589 3.03 0 1.8733 1.4904 3.3926 3.328 3.3926 1.0694 0 2.0105-0.5245 2.62-1.3235 0.25725 0.78747 0.60238 1.6494 0.93828 1.8719 0.65341 0.43131 0.88515 0.43131 1.0389 0.86261 0.15379 0.43203-0.55489 4.6028-0.90144 5.0724s-1.3394 0.89296-1.9071 1.1234c-0.56837 0.23045-2.7773 1.291-3.0006 1.7259 0.76042-0.33306 2.2494-0.61915 3.4392-0.80987 0.36569-0.0593-1.3316 1.1234-1.0538 1.0837 0.46914-0.065 2.8078-1.3336 2.8085-1.3336 0 0-0.0184 0.63214-0.46136 1.0598-0.73064 0.70584-1.8086 1.4507-1.8086 1.4507s3.79-1.2166 4.3669-2.4708c1.4436 1.9217 3.9431 2.2743 3.9431 2.2743s-1.496-0.95798-1.7682-1.4615c-0.27213-0.50355 0.0149-0.7752 0.0149-0.7752s2.7547 1.0613 5.1394 0.94353c-0.96098-0.43131-2.0779-0.78458-3.0771-1.4514-1.0007-0.66682-1.5293-0.81999-2.2309-1.1068-0.70159-0.2861-0.67253-2.8436-0.76254-3.3948-0.20198-1.2217 0.42592-1.3871 0.99074-2.046zm-4.5618-1.7245c-0.16016-0.12282-0.43441-0.50644-0.70796-0.92691 0.49323 0.29405 1.0602 0.47466 1.6732 0.47466 0.0801 0 0.1545-0.0174 0.23316-0.0231 0.0163 0.39518 0.017 0.70945 0.017 0.70945s-0.80862 0.0787-1.2154-0.23408zm3.0998 0.90091s0.34584-1.0591 0.19206-1.6082c-0.0376-0.13437-0.0737-0.36267-0.10488-0.62853 0.17221-0.15894 0.32953-0.33161 0.4656-0.52378 0.28277 0.20951 0.59246 0.38001 0.92483 0.51078-3e-3 0.044-0.0134 0.086-0.0134 0.13004 0 0.24057 0.0453 0.46742 0.11197 0.68488-0.34159 0.62059-0.66829 1.2123-0.76963 1.3951-0.23599 0.43276-0.80648 0.0397-0.80648 0.0397z" opacity=".998"/>
  <path d="m85.57 81.455c-1.002-0.78353-3.9349-3.6116-4.5529-4.1779-1.5365-1.6757-2.5493-1.4227-3.401-1.2288-0.56783 0.17067-0.9223 0.34686-1.2313 0.64941-0.30062 0.27928-0.4604 0.86462-0.69658 1.0374l-0.7735 0.5897 1.0244 0.6857c-0.16533 0.53759-0.41333 1.7225-0.3897 3.1707 0.0478 2.2459 2.2329 3.5856 3.7767 4.1937 1.9572 0.76371 6.4427-0.11574 7.7788-1.4966 1.0688 0.41893 3.9452 1.6675 5.8073 1.5761 0.50753-0.0241 1.5948-0.32096 0.87438-1.1603-0.72039-0.83932-3.3051-1.3899-4.3238-1.7623-1.453-0.52753-3.1329-1.5337-3.8927-2.0768z"/>
  <path d="m113.46 115.08c1.002-0.78353 3.9349-3.6116 4.5529-4.1779 1.5365-1.6757 2.5493-1.4227 3.401-1.2288 0.56783 0.17067 0.92231 0.34686 1.2313 0.64941 0.30062 0.27928 0.4604 0.86462 0.69658 1.0374l0.77351 0.5897-1.0244 0.68571c0.16533 0.53758 0.41333 1.7225 0.3897 3.1707-0.0478 2.2459-2.2329 3.5856-3.7767 4.1937-1.9572 0.76371-6.4427-0.11574-7.7788-1.4966-1.0688 0.41893-3.9452 1.6675-5.8073 1.5761-0.50753-0.0241-1.5948-0.32096-0.87438-1.1603 0.7204-0.83932 3.3051-1.3899 4.3238-1.7623 1.453-0.52753 3.1328-1.5337 3.8927-2.0768z"/>
  <path d="m15.768 81.258c1.002-0.78353 3.9349-3.6116 4.5529-4.1779 1.5365-1.6757 2.5493-1.4227 3.401-1.2288 0.56783 0.17067 0.9223 0.34686 1.2313 0.64941 0.30062 0.27928 0.4604 0.86462 0.69658 1.0374l0.7735 0.5897-1.0244 0.6857c0.16533 0.53759 0.41333 1.7225 0.3897 3.1707-0.0478 2.2459-2.2329 3.5856-3.7767 4.1937-1.9572 0.76371-6.4427-0.11574-7.7788-1.4966-1.0688 0.41893-3.9452 1.6675-5.8073 1.5761-0.50753-0.0241-1.5948-0.32096-0.87438-1.1603 0.72039-0.83932 3.3051-1.3899 4.3238-1.7623 1.453-0.52753 3.1329-1.5337 3.8927-2.0768z"/>
  <path d="m51.988 84.785c0.20055-0.23191 0.39331-0.80121 0.55915-1.4384 0.41813 0.49705 1.0297 0.81782 1.7221 0.81782 0.79869 0 1.4989-0.4212 1.9057-1.0555 0.1219 0.0195 0.24521 0.0383 0.37206 0.0383 1.2579 0 2.2784-1.0396 2.2784-2.322 0-0.94641-0.55633-1.7577-1.3536-2.1197 0.05952-0.28538 0.09568-0.57869 0.09568-0.8814 0-2.2194-1.703-4.0168-3.8467-4.1505-0.63356-1.4752-2.0729-2.5069-3.7511-2.5069-1.9737 0-3.62 1.424-4.0083 3.3182-0.17434-0.0289-0.3501-0.0549-0.53222-0.0549-1.5825 0-2.9014 1.1292-3.2387 2.6377-1.097 0.55484-1.8589 1.697-1.8589 3.03 0 1.8733 1.4904 3.3926 3.328 3.3926 1.0694 0 2.0105-0.5245 2.62-1.3235 0.25725 0.78747 0.60237 1.6494 0.93828 1.8719 0.65341 0.43131 0.88515 0.43131 1.0389 0.86261 0.15379 0.43203-0.5549 4.6028-0.90144 5.0724-0.34655 0.46959-1.3394 0.89296-1.9071 1.1234-0.56838 0.23045-2.7773 1.291-3.0006 1.7259 0.76042-0.33306 2.2494-0.61915 3.4392-0.80987 0.36568-0.0593-1.3316 1.1234-1.0538 1.0837 0.46914-0.065 2.8078-1.3336 2.8085-1.3336 0 0-0.01844 0.63214-0.46136 1.0598-0.73065 0.70584-1.8085 1.4507-1.8085 1.4507s3.79-1.2166 4.3669-2.4708c1.4436 1.9217 3.9431 2.2743 3.9431 2.2743s-1.496-0.95798-1.7682-1.4615c-0.27213-0.50355 0.01493-0.7752 0.01493-0.7752s2.7547 1.0613 5.1394 0.94353c-0.96098-0.43131-2.0779-0.78458-3.0771-1.4514-1.0007-0.66682-1.5293-0.81999-2.2309-1.1068-0.70159-0.2861-0.67254-2.8436-0.76255-3.3948-0.20197-1.2217 0.42592-1.3871 0.99074-2.046zm-4.5618-1.7245c-0.16016-0.12282-0.43441-0.50644-0.70796-0.92691 0.49323 0.29405 1.0602 0.47466 1.6732 0.47466 0.08008 0 0.1545-0.0174 0.23316-0.0231 0.01628 0.39518 0.01702 0.70945 0.01702 0.70945s-0.80861 0.0787-1.2154-0.23408zm3.0998 0.90091s0.34584-1.0591 0.19206-1.6082c-0.03756-0.13437-0.0737-0.36267-0.10488-0.62853 0.17221-0.15894 0.32954-0.33161 0.4656-0.52378 0.28277 0.20951 0.59246 0.38001 0.92483 0.51077-0.0027 0.044-0.01344 0.086-0.01344 0.13005 0 0.24057 0.04533 0.46742 0.11196 0.68488-0.34158 0.62059-0.66829 1.2123-0.76962 1.3951-0.23599 0.43276-0.80648 0.0397-0.80648 0.0397z" opacity=".998"/>
  <path d="m118.23 84.781c0.20055-0.23191 0.39331-0.80121 0.55914-1.4384 0.41813 0.49705 1.0297 0.81782 1.7221 0.81782 0.79869 0 1.4989-0.4212 1.9056-1.0555 0.12189 0.0195 0.24521 0.0383 0.37206 0.0383 1.2579 0 2.2784-1.0396 2.2784-2.322 0-0.94641-0.55633-1.7577-1.3536-2.1197 0.0595-0.28538 0.0957-0.57869 0.0957-0.8814 0-2.2194-1.703-4.0168-3.8467-4.1505-0.63356-1.4752-2.0729-2.5069-3.7511-2.5069-1.9737 0-3.62 1.424-4.0083 3.3182-0.17434-0.0289-0.3501-0.0549-0.53223-0.0549-1.5825 0-2.9014 1.1292-3.2387 2.6377-1.097 0.55484-1.8589 1.697-1.8589 3.03 0 1.8733 1.4904 3.3926 3.328 3.3926 1.0694 0 2.0106-0.5245 2.62-1.3235 0.25725 0.78747 0.60237 1.6494 0.93828 1.8719 0.65341 0.43131 0.88515 0.43131 1.0389 0.86261 0.15379 0.43203-0.5549 4.6028-0.90144 5.0724-0.34655 0.46959-1.3394 0.89296-1.9071 1.1234-0.56837 0.23045-2.7773 1.291-3.0006 1.7259 0.76042-0.33306 2.2494-0.61915 3.4392-0.80987 0.36569-0.0593-1.3316 1.1234-1.0538 1.0837 0.46914-0.065 2.8078-1.3336 2.8085-1.3336 0 0-0.0184 0.63214-0.46136 1.0598-0.73065 0.70584-1.8086 1.4507-1.8086 1.4507s3.79-1.2166 4.3669-2.4708c1.4436 1.9217 3.9431 2.2743 3.9431 2.2743s-1.496-0.95798-1.7682-1.4615c-0.27213-0.50355 0.0149-0.7752 0.0149-0.7752s2.7547 1.0613 5.1394 0.94353c-0.96097-0.43131-2.0779-0.78458-3.0771-1.4514-1.0007-0.66682-1.5293-0.81999-2.2309-1.1068-0.70159-0.2861-0.67254-2.8436-0.76255-3.3948-0.20197-1.2217 0.42593-1.3871 0.99075-2.046zm-4.5618-1.7245c-0.16016-0.12282-0.43442-0.50644-0.70796-0.92691 0.49323 0.29405 1.0602 0.47466 1.6732 0.47466 0.0801 0 0.15449-0.0174 0.23315-0.0231 0.0163 0.39518 0.017 0.70945 0.017 0.70945s-0.80861 0.0787-1.2154-0.23408zm3.0998 0.90091s0.34584-1.0591 0.19206-1.6082c-0.0376-0.13437-0.0737-0.36267-0.10489-0.62853 0.17221-0.15894 0.32954-0.33161 0.46561-0.52378 0.28277 0.20951 0.59246 0.38001 0.92483 0.51077-3e-3 0.044-0.0134 0.086-0.0134 0.13005 0 0.24057 0.0453 0.46742 0.11196 0.68488-0.34158 0.62059-0.66828 1.2123-0.76962 1.3951-0.236 0.43276-0.80649 0.0397-0.80649 0.0397z" opacity=".998"/>
  <path d="m85.023 51.61c0.20056-0.23191 0.39332-0.80121 0.55915-1.4384 0.41812 0.49705 1.0297 0.81782 1.7221 0.81782 0.7987 0 1.4989-0.4212 1.9057-1.0555 0.12189 0.0195 0.2452 0.0383 0.37206 0.0383 1.2579 0 2.2784-1.0396 2.2784-2.322 0-0.94641-0.55633-1.7577-1.3536-2.1197 0.0595-0.28538 0.0957-0.57869 0.0957-0.8814 0-2.2194-1.703-4.0168-3.8467-4.1505-0.63357-1.4752-2.0729-2.5069-3.7511-2.5069-1.9737 0-3.62 1.424-4.0083 3.3182-0.17433-0.0289-0.3501-0.0549-0.53222-0.0549-1.5825 0-2.9014 1.1292-3.2387 2.6377-1.097 0.55484-1.8589 1.697-1.8589 3.03 0 1.8733 1.4904 3.3926 3.328 3.3926 1.0694 0 2.0105-0.5245 2.62-1.3235 0.25725 0.78747 0.60238 1.6494 0.93829 1.8719 0.65341 0.43131 0.88515 0.43131 1.0389 0.86261 0.15378 0.43203-0.5549 4.6028-0.90145 5.0724-0.34654 0.46959-1.3394 0.89296-1.907 1.1234-0.56838 0.23045-2.7773 1.291-3.0006 1.7259 0.76042-0.33306 2.2494-0.61915 3.4392-0.80987 0.36568-0.0593-1.3316 1.1234-1.0538 1.0837 0.46915-0.065 2.8078-1.3336 2.8085-1.3336 0 0-0.0184 0.63214-0.46135 1.0598-0.73065 0.70584-1.8086 1.4507-1.8086 1.4507s3.79-1.2166 4.3669-2.4708c1.4436 1.9217 3.9431 2.2743 3.9431 2.2743s-1.496-0.95798-1.7682-1.4615c-0.27213-0.50355 0.0149-0.7752 0.0149-0.7752s2.7547 1.0613 5.1394 0.94353c-0.96098-0.43131-2.0779-0.78458-3.0771-1.4514-1.0007-0.66682-1.5293-0.81999-2.2309-1.1068-0.7016-0.2861-0.67254-2.8436-0.76255-3.3948-0.20197-1.2217 0.42592-1.3871 0.99074-2.046zm-4.5618-1.7245c-0.16015-0.12282-0.43441-0.50644-0.70796-0.92691 0.49324 0.29405 1.0602 0.47466 1.6732 0.47466 0.0801 0 0.1545-0.0174 0.23316-0.0231 0.0163 0.39518 0.017 0.70945 0.017 0.70945s-0.80861 0.0787-1.2154-0.23408zm3.0998 0.90091s0.34583-1.0591 0.19205-1.6082c-0.0376-0.13437-0.0737-0.36267-0.10488-0.62853 0.17221-0.15894 0.32954-0.33161 0.4656-0.52378 0.28277 0.20951 0.59247 0.38001 0.92483 0.51077-3e-3 0.044-0.0134 0.086-0.0134 0.13005 0 0.24057 0.0453 0.46742 0.11197 0.68488-0.34158 0.62059-0.66829 1.2123-0.76963 1.3951-0.23599 0.43276-0.80648 0.0397-0.80648 0.0397z" opacity=".998"/>
  <path d="m18.942 51.659c0.20055-0.23191 0.39331-0.80121 0.55915-1.4384 0.41813 0.49705 1.0297 0.81782 1.7221 0.81782 0.79869 0 1.4989-0.4212 1.9057-1.0555 0.1219 0.0195 0.24521 0.0383 0.37206 0.0383 1.2579 0 2.2784-1.0396 2.2784-2.322 0-0.94641-0.55633-1.7577-1.3536-2.1197 0.05952-0.28538 0.09568-0.57869 0.09568-0.8814 0-2.2194-1.703-4.0168-3.8467-4.1505-0.63356-1.4752-2.0729-2.5069-3.7511-2.5069-1.9737 0-3.62 1.424-4.0083 3.3182-0.17434-0.0289-0.3501-0.0549-0.53222-0.0549-1.5825 0-2.9014 1.1292-3.2387 2.6377-1.097 0.55484-1.8589 1.697-1.8589 3.03 0 1.8733 1.4904 3.3926 3.328 3.3926 1.0694 0 2.0105-0.5245 2.62-1.3235 0.25725 0.78747 0.60237 1.6494 0.93828 1.8719 0.65341 0.43131 0.88515 0.43131 1.0389 0.86261 0.15379 0.43203-0.5549 4.6028-0.90144 5.0724-0.34655 0.46959-1.3394 0.89296-1.9071 1.1234-0.56838 0.23045-2.7773 1.291-3.0006 1.7259 0.76042-0.33306 2.2494-0.61915 3.4392-0.80987 0.36568-0.0593-1.3316 1.1234-1.0538 1.0837 0.46914-0.065 2.8078-1.3336 2.8085-1.3336 0 0-0.01844 0.63214-0.46136 1.0598-0.73065 0.70584-1.8085 1.4507-1.8085 1.4507s3.79-1.2166 4.3669-2.4708c1.4436 1.9217 3.9431 2.2743 3.9431 2.2743s-1.496-0.95798-1.7682-1.4615c-0.27213-0.50355 0.01493-0.7752 0.01493-0.7752s2.7547 1.0613 5.1394 0.94353c-0.96098-0.43131-2.0779-0.78458-3.0771-1.4514-1.0007-0.66682-1.5293-0.81999-2.2309-1.1068-0.70159-0.2861-0.67254-2.8436-0.76255-3.3948-0.20197-1.2217 0.42592-1.3871 0.99074-2.046zm-4.5618-1.7245c-0.16016-0.12282-0.43441-0.50644-0.70796-0.92691 0.49323 0.29405 1.0602 0.47466 1.6732 0.47466 0.08008 0 0.1545-0.0174 0.23316-0.0231 0.01628 0.39518 0.01702 0.70945 0.01702 0.70945s-0.80861 0.0787-1.2154-0.23408zm3.0998 0.90091s0.34584-1.0591 0.19206-1.6082c-0.03756-0.13437-0.0737-0.36267-0.10488-0.62853 0.17221-0.15894 0.32954-0.33161 0.4656-0.52378 0.28277 0.20951 0.59246 0.38001 0.92483 0.51077-0.0027 0.044-0.01344 0.086-0.01344 0.13005 0 0.24057 0.04533 0.46742 0.11196 0.68488-0.34158 0.62059-0.66829 1.2123-0.76962 1.3951-0.23599 0.43276-0.80648 0.0397-0.80648 0.0397z" opacity=".998"/>
  <path d="m52.103 18.498c0.20055-0.23191 0.39331-0.80121 0.55915-1.4384 0.41813 0.49705 1.0297 0.81782 1.7221 0.81782 0.79869 0 1.4989-0.4212 1.9057-1.0555 0.1219 0.0195 0.24521 0.0383 0.37206 0.0383 1.2579 0 2.2784-1.0396 2.2784-2.322 0-0.94641-0.55633-1.7577-1.3536-2.1197 0.05952-0.28538 0.09568-0.57869 0.09568-0.8814 0-2.2194-1.703-4.0168-3.8467-4.1505-0.63356-1.4752-2.0729-2.5069-3.7511-2.5069-1.9737 0-3.62 1.424-4.0083 3.3182-0.17434-0.0289-0.3501-0.0549-0.53222-0.0549-1.5825 0-2.9014 1.1292-3.2387 2.6377-1.097 0.55484-1.8589 1.697-1.8589 3.03 0 1.8733 1.4904 3.3926 3.328 3.3926 1.0694 0 2.0105-0.5245 2.62-1.3235 0.25725 0.78747 0.60237 1.6494 0.93828 1.8719 0.65341 0.43131 0.88515 0.43131 1.0389 0.86261 0.15379 0.43203-0.5549 4.6028-0.90144 5.0724-0.34655 0.46959-1.3394 0.89296-1.9071 1.1234-0.56838 0.23045-2.7773 1.291-3.0006 1.7259 0.76042-0.33306 2.2494-0.61915 3.4392-0.80987 0.36569-0.0593-1.3316 1.1234-1.0538 1.0837 0.46914-0.065 2.8078-1.3336 2.8085-1.3336 0 0-0.01844 0.63214-0.46136 1.0598-0.73065 0.70584-1.8085 1.4507-1.8085 1.4507s3.79-1.2166 4.3669-2.4708c1.4436 1.9217 3.9431 2.2743 3.9431 2.2743s-1.496-0.95798-1.7682-1.4615c-0.27213-0.50355 0.01493-0.7752 0.01493-0.7752s2.7547 1.0613 5.1394 0.94353c-0.96098-0.43131-2.0779-0.78458-3.0771-1.4514-1.0007-0.66682-1.5293-0.81999-2.2309-1.1068-0.70159-0.2861-0.67254-2.8436-0.76255-3.3948-0.20197-1.2217 0.42592-1.3871 0.99074-2.046zm-4.5618-1.7245c-0.16016-0.12282-0.43441-0.50644-0.70796-0.92691 0.49323 0.29405 1.0602 0.47466 1.6732 0.47466 0.08008 0 0.1545-0.0174 0.23316-0.0231 0.01628 0.39518 0.01702 0.70945 0.01702 0.70945s-0.80861 0.0787-1.2154-0.23408zm3.0998 0.90091s0.34584-1.0591 0.19206-1.6082c-0.03756-0.13437-0.0737-0.36267-0.10488-0.62853 0.17221-0.15894 0.32954-0.33161 0.4656-0.52378 0.28277 0.20951 0.59246 0.38001 0.92483 0.51077-0.0027 0.044-0.01344 0.086-0.01344 0.13005 0 0.24057 0.04533 0.46742 0.11196 0.68488-0.34158 0.62059-0.66829 1.2123-0.76962 1.3951-0.23599 0.43276-0.80648 0.0397-0.80648 0.0397z" opacity=".998"/>
  <path d="m118 18.769c0.20055-0.23191 0.39331-0.80121 0.55914-1.4384 0.41813 0.49705 1.0297 0.81782 1.7221 0.81782 0.79869 0 1.4989-0.4212 1.9056-1.0555 0.1219 0.0195 0.24521 0.0383 0.37206 0.0383 1.2579 0 2.2784-1.0396 2.2784-2.322 0-0.94641-0.55633-1.7577-1.3536-2.1197 0.0595-0.28538 0.0957-0.57869 0.0957-0.8814 0-2.2194-1.703-4.0168-3.8467-4.1505-0.63356-1.4752-2.0729-2.5069-3.7511-2.5069-1.9737 0-3.62 1.424-4.0083 3.3182-0.17434-0.0289-0.3501-0.0549-0.53223-0.0549-1.5825 0-2.9014 1.1292-3.2387 2.6377-1.097 0.55484-1.8589 1.697-1.8589 3.03 0 1.8733 1.4904 3.3926 3.328 3.3926 1.0694 0 2.0106-0.5245 2.62-1.3235 0.25725 0.78747 0.60237 1.6494 0.93828 1.8719 0.65341 0.43131 0.88515 0.43131 1.0389 0.86261 0.15379 0.43203-0.5549 4.6028-0.90144 5.0724-0.34655 0.46959-1.3394 0.89296-1.9071 1.1234-0.56837 0.23045-2.7773 1.291-3.0006 1.7259 0.76042-0.33306 2.2494-0.61915 3.4392-0.80987 0.36569-0.0593-1.3316 1.1234-1.0538 1.0837 0.46914-0.065 2.8078-1.3336 2.8085-1.3336 0 0-0.0184 0.63214-0.46136 1.0598-0.73065 0.70584-1.8086 1.4507-1.8086 1.4507s3.79-1.2166 4.3669-2.4708c1.4436 1.9217 3.9431 2.2743 3.9431 2.2743s-1.496-0.95798-1.7682-1.4615c-0.27213-0.50355 0.0149-0.7752 0.0149-0.7752s2.7547 1.0613 5.1394 0.94353c-0.96098-0.43131-2.0779-0.78458-3.0771-1.4514-1.0007-0.66682-1.5293-0.81999-2.2309-1.1068-0.70159-0.2861-0.67254-2.8436-0.76254-3.3948-0.20198-1.2217 0.42592-1.3871 0.99074-2.046zm-4.5618-1.7245c-0.16016-0.12282-0.43442-0.50644-0.70796-0.92691 0.49323 0.29405 1.0602 0.47466 1.6732 0.47466 0.0801 0 0.15449-0.0174 0.23315-0.0231 0.0163 0.39518 0.017 0.70945 0.017 0.70945s-0.80861 0.0787-1.2154-0.23408zm3.0998 0.90091s0.34584-1.0591 0.19206-1.6082c-0.0376-0.13437-0.0737-0.36267-0.10488-0.62853 0.1722-0.15894 0.32953-0.33161 0.4656-0.52378 0.28277 0.20951 0.59246 0.38001 0.92483 0.51077-3e-3 0.044-0.0134 0.086-0.0134 0.13005 0 0.24057 0.0453 0.46742 0.11196 0.68488-0.34158 0.62059-0.66828 1.2123-0.76962 1.3951-0.236 0.43276-0.80648 0.0397-0.80648 0.0397z" opacity=".998"/>
  <path d="m49.233 48.08c1.002-0.78353 3.9349-3.6116 4.5529-4.1779 1.5365-1.6757 2.5493-1.4227 3.401-1.2288 0.56783 0.17067 0.9223 0.34686 1.2313 0.64941 0.30062 0.27928 0.4604 0.86462 0.69658 1.0374l0.7735 0.5897-1.0244 0.6857c0.16533 0.53759 0.41333 1.7225 0.3897 3.1707-0.0478 2.2459-2.2329 3.5856-3.7767 4.1937-1.9572 0.76371-6.4427-0.11574-7.7788-1.4966-1.0688 0.41893-3.9452 1.6675-5.8073 1.5761-0.50753-0.0241-1.5948-0.32096-0.87438-1.1603 0.72039-0.83932 3.3051-1.3899 4.3238-1.7623 1.453-0.52753 3.1329-1.5337 3.8927-2.0768z"/>
  <path d="m16.313 15.682c-1.002-0.78353-3.9349-3.6116-4.5529-4.1779-1.5365-1.6757-2.5493-1.4227-3.401-1.2288-0.56783 0.17067-0.92231 0.34686-1.2313 0.64941-0.30062 0.27928-0.4604 0.86462-0.69658 1.0374l-0.7735 0.5897 1.0244 0.6857c-0.16533 0.53759-0.41333 1.7225-0.3897 3.1707 0.0478 2.2459 2.2329 3.5856 3.7767 4.1937 1.9572 0.76371 6.4427-0.11574 7.7788-1.4966 1.0688 0.41893 3.9452 1.6675 5.8073 1.5761 0.50753-0.0241 1.5948-0.32096 0.87438-1.1603-0.72039-0.83932-3.3051-1.3899-4.3238-1.7623-1.453-0.52753-3.1329-1.5337-3.8927-2.0768z"/>
  <path d="m82.722 16.837c1.002-0.78353 3.9349-3.6116 4.5529-4.1779 1.5365-1.6757 2.5493-1.4227 3.401-1.2288 0.56783 0.17067 0.9223 0.34686 1.2313 0.64941 0.30062 0.27928 0.4604 0.86462 0.69658 1.0374l0.7735 0.5897-1.0244 0.6857c0.16533 0.53759 0.41333 1.7225 0.3897 3.1707-0.0478 2.2459-2.2329 3.5856-3.7767 4.1937-1.9572 0.76371-6.4427-0.11574-7.7788-1.4966-1.0688 0.41893-3.9452 1.6675-5.8073 1.5761-0.50753-0.0241-1.5948-0.32096-0.87438-1.1603 0.72039-0.83932 3.3051-1.3899 4.3238-1.7623 1.453-0.52753 3.1329-1.5337 3.8927-2.0768z"/>
  <path d="m115.76 48.815c-1.002-0.78353-3.9349-3.6116-4.5529-4.1779-1.5365-1.6757-2.5493-1.4227-3.401-1.2288-0.56783 0.17067-0.92231 0.34686-1.2313 0.64941-0.30062 0.27928-0.4604 0.86462-0.69658 1.0374l-0.77351 0.5897 1.0244 0.6857c-0.16533 0.53759-0.41333 1.7225-0.3897 3.1707 0.0478 2.2459 2.2329 3.5856 3.7767 4.1937 1.9572 0.76371 6.4427-0.11574 7.7788-1.4966 1.0688 0.41893 3.9452 1.6675 5.8073 1.5761 0.50753-0.0241 1.5948-0.32096 0.87438-1.1603-0.7204-0.83932-3.3051-1.3899-4.3238-1.7623-1.453-0.52753-3.1328-1.5337-3.8927-2.0768z"/>
 </g>
</svg>
